<?xml version="1.0" encoding="UTF-8" standalone="no"?>
<!DOCTYPE svg PUBLIC "-//W3C//DTD SVG 1.1//EN" "http://www.w3.org/Graphics/SVG/1.1/DTD/svg11.dtd">
<svg width="100%" height="100%" viewBox="0 0 600 330" version="1.1" xmlns="http://www.w3.org/2000/svg" xmlns:xlink="http://www.w3.org/1999/xlink" xml:space="preserve" xmlns:serif="http://www.serif.com/" style="fill-rule:evenodd;clip-rule:evenodd;stroke-linejoin:round;stroke-miterlimit:2;">
    <g id="blade_runner_logo" transform="matrix(3.75556,0,0,3.75556,309,102)">
        <g transform="matrix(1,0,0,1,-112.5,-25.5)">
            <g id="Layer1">
                <g transform="matrix(1,0,0,1,52.2932,-0.221354)">
                    <path d="M26.693,5.918L2.751,5.918L7.552,0.238L22.38,0.221C25.288,0.221 26.741,1.789 26.741,4.925C26.741,5.24 26.725,5.571 26.693,5.918ZM26.465,8.132C26.465,9.564 25.602,10.611 23.877,11.273C24.517,12.347 24.859,12.928 24.902,13.014C25.163,13.568 25.293,14.278 25.293,15.147C25.293,15.233 25.282,15.456 25.26,15.814C25.13,17.995 24.251,19.769 22.624,21.136C21.333,22.221 19.949,22.948 18.473,23.317L0.277,23.285L4.704,8.132L26.465,8.132ZM15.967,16.009C15.967,15.326 15.733,14.946 15.267,14.87L10.091,14.87L9.44,17.197L14.616,17.197C14.931,17.197 15.234,17.075 15.527,16.831C15.82,16.587 15.967,16.313 15.967,16.009Z" style="fill:rgb(211,46,45);fill-rule:nonzero;"/>
                    <path d="M40.609,0.335L38.965,5.885L30.892,5.885L32.422,0.384L40.609,0.335ZM46.891,17.62L42.236,23.285L26.025,23.285L30.322,8.099L38.411,8.099L35.742,17.588L46.891,17.62Z" style="fill:rgb(211,46,45);fill-rule:nonzero;"/>
                    <path d="M61.589,5.869L60.352,0.335L51.986,0.335L47.054,5.869L61.589,5.869ZM54.492,13.893L56.868,23.382L65.234,23.382L62.028,8.099L45.801,8.099L40.788,13.91L54.492,13.893Z" style="fill:rgb(211,46,45);fill-rule:nonzero;"/>
                    <path d="M89.925,5.918L66.829,5.918L70.41,0.335L83.854,0.335C85.308,0.335 86.665,0.9 87.923,2.028C89.204,3.189 89.871,4.486 89.925,5.918ZM90.348,8.099C90.348,12.016 89.589,15.087 88.07,17.311C86.854,19.091 85.742,20.36 84.733,21.12C82.726,22.628 80.208,23.382 77.181,23.382L63.932,23.382L68.294,8.099L76.514,8.099L73.747,17.409C74.268,17.615 74.826,17.718 75.423,17.718C76.541,17.718 77.696,17.382 78.89,16.709C80.832,15.613 82.102,14.045 82.699,12.005C83.013,10.942 83.192,9.64 83.236,8.099L90.348,8.099Z" style="fill:rgb(211,46,45);fill-rule:nonzero;"/>
                    <path d="M115.137,0.335L113.656,5.918L91.943,5.918L95.524,0.335L115.137,0.335ZM112.972,8.099L111.361,14.17L100.553,14.17L99.658,17.311L110.417,17.311L108.805,23.285L89.242,23.285L93.311,8.099L112.972,8.099Z" style="fill:rgb(211,46,45);fill-rule:nonzero;"/>
                </g>
                <g transform="matrix(1,0,0,1,-32.484,0.4071)">
                    <path d="M93.466,33.129L67.636,33.129L71.168,27.595L90.129,27.595C90.639,27.595 91.165,27.779 91.708,28.148C92.218,28.495 92.603,28.908 92.864,29.385C93.265,30.123 93.466,31.371 93.466,33.129ZM93.075,35.359C92.891,36.715 92.115,37.99 90.748,39.183C90.107,39.737 89.587,40.089 89.185,40.241C89.695,41.033 89.95,41.869 89.95,42.748C89.95,43.269 89.874,43.996 89.722,44.929C89.625,45.515 89.039,47.387 87.964,50.544L80.494,50.544L83.163,41.381L75.302,41.381L72.47,50.544L64.706,50.544L69.182,35.359L93.075,35.359Z" style="fill:rgb(210,47,43);fill-rule:nonzero;"/>
                    <path d="M117.994,27.709L116.447,33.178L108.83,33.178L110.377,27.693L117.994,27.709ZM104.127,27.709L102.613,33.178L95.093,33.178L96.672,27.709L104.127,27.709ZM115.91,35.359L111.695,50.577L99.504,50.593C95.685,50.593 93.319,49.448 92.408,47.159C92.158,46.529 92.033,45.911 92.033,45.303C92.033,44.934 92.077,44.592 92.164,44.278L94.621,35.359L102.027,35.342L99.667,43.627C99.558,44.007 99.504,44.283 99.504,44.457C99.504,44.902 99.727,45.189 100.171,45.319L105.494,45.319L108.309,35.359L115.91,35.359Z" style="fill:rgb(210,47,43);fill-rule:nonzero;"/>
                    <path d="M144.426,27.595L142.782,33.145L120.94,33.145L122.518,27.595L130.087,27.595L135.018,32.282L136.207,27.595L144.426,27.595ZM142.326,35.359L138.274,50.544L129.908,50.544L132.479,41.332L127.597,36.905L123.723,50.593L116.106,50.593L120.272,35.359L142.326,35.359Z" style="fill:rgb(210,47,43);fill-rule:nonzero;"/>
                    <path d="M170.37,27.595L168.726,33.145L146.884,33.145L148.462,27.595L156.031,27.595L160.962,32.282L162.151,27.595L170.37,27.595ZM168.27,35.359L164.218,50.544L155.852,50.544L158.423,41.332L153.541,36.905L149.667,50.593L142.05,50.593L146.216,35.359L168.27,35.359Z" style="fill:rgb(210,47,43);fill-rule:nonzero;"/>
                    <path d="M193.498,27.595L192.017,33.178L170.305,33.178L173.886,27.595L193.498,27.595ZM191.334,35.359L189.722,41.43L178.915,41.43L178.02,44.571L188.778,44.571L187.167,50.544L167.603,50.544L171.672,35.359L191.334,35.359Z" style="fill:rgb(210,47,43);fill-rule:nonzero;"/>
                    <path d="M220.484,33.129L194.654,33.129L198.186,27.595L217.147,27.595C217.657,27.595 218.184,27.779 218.726,28.148C219.236,28.495 219.621,28.908 219.882,29.385C220.283,30.123 220.484,31.371 220.484,33.129ZM220.093,35.359C219.909,36.715 219.133,37.99 217.766,39.183C217.126,39.737 216.605,40.089 216.203,40.241C216.713,41.033 216.968,41.869 216.968,42.748C216.968,43.269 216.892,43.996 216.74,44.929C216.643,45.515 216.057,47.387 214.983,50.544L207.512,50.544L210.181,41.381L202.32,41.381L199.488,50.544L191.724,50.544L196.2,35.359L220.093,35.359Z" style="fill:rgb(210,47,43);fill-rule:nonzero;"/>
                </g>
            </g>
        </g>
    </g>
    <g transform="matrix(2.00415,0,0,2.00415,-173.893,-599.908)">
        <g transform="matrix(71.851,0,0,71.851,140,460)">
            <path d="M0.701,-0.524C0.701,-0.565 0.694,-0.598 0.681,-0.621C0.656,-0.667 0.624,-0.69 0.586,-0.69L0.341,-0.69C0.297,-0.69 0.255,-0.673 0.214,-0.64C0.172,-0.606 0.145,-0.567 0.13,-0.524L0.701,-0.524ZM-0.013,0.001L0.563,0L0.611,-0.17L0.321,-0.17C0.349,-0.193 0.396,-0.218 0.463,-0.244C0.529,-0.269 0.576,-0.292 0.603,-0.313C0.65,-0.35 0.68,-0.398 0.693,-0.457L0.44,-0.457C0.441,-0.456 0.441,-0.454 0.441,-0.452C0.441,-0.433 0.406,-0.408 0.337,-0.375C0.234,-0.327 0.162,-0.285 0.12,-0.25C0.038,-0.182 -0.006,-0.098 -0.013,0.001Z" style="fill:white;fill-rule:nonzero;"/>
        </g>
        <g transform="matrix(71.851,0,0,71.851,187.35,460)">
            <path d="M0.4,-0.688L0.559,-0.69C0.646,-0.691 0.69,-0.645 0.69,-0.554C0.69,-0.545 0.69,-0.535 0.689,-0.524L0.118,-0.524C0.131,-0.565 0.155,-0.602 0.19,-0.635C0.227,-0.67 0.266,-0.688 0.307,-0.688L0.4,-0.688ZM0.276,-0.243L0.276,-0.232C0.276,-0.208 0.294,-0.197 0.329,-0.198C0.36,-0.199 0.379,-0.215 0.387,-0.245L0.444,-0.457L0.672,-0.456L0.639,-0.327C0.628,-0.288 0.621,-0.261 0.618,-0.248C0.575,-0.089 0.464,-0.006 0.287,0.001L0.26,0C0.211,-0.003 0.173,-0.009 0.146,-0.018C0.098,-0.035 0.066,-0.063 0.05,-0.104C0.043,-0.122 0.039,-0.144 0.039,-0.171C0.039,-0.202 0.044,-0.235 0.053,-0.269L0.104,-0.457L0.337,-0.457L0.284,-0.27L0.276,-0.243Z" style="fill:white;fill-rule:nonzero;"/>
        </g>
        <g transform="matrix(71.851,0,0,71.851,233.694,460)">
            <path d="M0.167,-0.688L0.118,-0.522L0.344,-0.522L0.39,-0.687L0.167,-0.688ZM0.514,-0.687L0.468,-0.522L0.694,-0.522L0.739,-0.687L0.514,-0.687ZM0.554,0.003L0.678,-0.457L0.451,-0.457L0.438,-0.398L0.311,-0.398L0.326,-0.457L0.103,-0.457L0.043,-0.227L0.392,-0.229L0.326,0.001L0.554,0.003Z" style="fill:white;fill-rule:nonzero;"/>
        </g>
        <g transform="matrix(71.851,0,0,71.851,283.271,460)">
            <path d="M0.559,-0.69C0.646,-0.69 0.69,-0.645 0.69,-0.554C0.69,-0.545 0.689,-0.535 0.688,-0.524L0.118,-0.524C0.131,-0.566 0.154,-0.603 0.189,-0.636C0.226,-0.672 0.265,-0.69 0.306,-0.69L0.559,-0.69ZM0.4,-0.29L0.266,-0.288C0.159,-0.287 0.106,-0.331 0.106,-0.421C0.106,-0.423 0.107,-0.435 0.11,-0.457L0.68,-0.457C0.641,-0.277 0.595,-0.156 0.541,-0.095C0.506,-0.056 0.47,-0.03 0.432,-0.016C0.41,-0.008 0.375,-0.002 0.327,0.001L0.23,0C0.188,-0.001 0.155,-0.006 0.131,-0.015C0.069,-0.04 0.038,-0.09 0.038,-0.166C0.038,-0.189 0.041,-0.217 0.048,-0.252L0.279,-0.252L0.276,-0.24C0.275,-0.237 0.275,-0.234 0.275,-0.229C0.275,-0.204 0.293,-0.192 0.329,-0.195C0.36,-0.198 0.379,-0.213 0.387,-0.242L0.4,-0.29Z" style="fill:white;fill-rule:nonzero;"/>
        </g>
    </g>
</svg>
